mtllib model_22.mtl
o model_22
v 0 0 5000 
v 0 2400 5000 
v -95200 0 5000 
v -95200 2400 5000 
v 8400 202000 10000 
v 4200 202000 10000 
v 8400 0 10000 
v 4200 0 10000 
v -103600 0 10000 
v -99400 0 10000 
v -103600 202000 10000 
v -99400 202000 10000 
vn 0 0 1 
vn 0 0 1 
vn 0 0 1 
vn 0 0 1 
vn 0 0 1 
vn 0 0 1 
vn 0 0 1 
vn 0 0 1 
vn 0 0 1 
vn 0 0 1 
vn 0 0 1 
vn 0 0 1 
vt 0 -4.7099998568000956e-8 
vt 0 -0.012158099561929703 
vt 1.0000005960464478 -4.7099998568000956e-8 
vt 1.0000005960464478 -0.012158099561929703 
vt 0 -1 
vt 1.0000005960464478 -1 
vt 0 5.399999736255268e-7 
vt 1.0000005960464478 5.399999736255268e-7 
vt 0 -1 
vt 1.0000005960464478 -1 
vt 0 5.399999736255268e-7 
vt 1.0000005960464478 5.399999736255268e-7 
s on 
f 1/1/1 2/2/2 3/3/3 
f 2/2/2 4/4/4 3/3/3 
f 3/3/3 4/4/4 4/4/4 
f 4/4/4 5/5/5 4/4/4 
f 4/4/4 5/5/5 5/5/5 
f 5/5/5 6/6/6 5/5/5 
f 5/5/5 6/6/6 7/7/7 
f 6/6/6 8/8/8 7/7/7 
f 7/7/7 8/8/8 8/8/8 
f 8/8/8 9/9/9 8/8/8 
f 8/8/8 9/9/9 9/9/9 
f 9/9/9 10/10/10 9/9/9 
f 9/9/9 10/10/10 11/11/11 
f 10/10/10 12/12/12 11/11/11 

