mtllib model_27.mtl
o model_27
v -92700.203125 172333.875 5200 
v -95200.203125 172333.875 5200 
v -92700.203125 159332 5200 
v -95200.203125 159332 5200 
v -92700.203125 159332 5199.998046875 
v -92700.203125 159332 -0.004094489850103855 
v -92700.203125 172333.875 5199.998046875 
v -92700.203125 172333.875 -0.004094489850103855 
v -92700.203125 172333.875 5199.998046875 
v -92700.203125 172333.875 -0.004094489850103855 
v -95200.203125 172333.875 5199.998046875 
v -95200.203125 172333.875 -0.004094489850103855 
v -95200.203125 172333.875 5199.998046875 
v -95200.203125 172333.875 -0.004094489850103855 
v -95200.203125 159332 5199.998046875 
v -95200.203125 159332 -0.004094489850103855 
v -95200.203125 159332 5199.998046875 
v -95200.203125 159332 -0.004094489850103855 
v -92700.203125 159332 5199.998046875 
v -92700.203125 159332 -0.004094489850103855 
vn 0 0 1 
vn 0 0 1 
vn 0 0 1 
vn 0 0 1 
vn 0.999997615814209 0 0.002184694167226553 
vn 0.999997615814209 0 0.002184694167226553 
vn 0.999997615814209 0 0.002184694167226553 
vn 0.999997615814209 0 0.002184694167226553 
vn -1.0341130485562108e-13 0.999997615814209 0.002184694167226553 
vn -1.0341130485562108e-13 0.999997615814209 0.002184694167226553 
vn -1.0341130485562108e-13 0.999997615814209 0.002184694167226553 
vn -1.0341130485562108e-13 0.999997615814209 0.002184694167226553 
vn -0.999997615814209 -2.0682260971124217e-13 0.002184694167226553 
vn -0.999997615814209 -2.0682260971124217e-13 0.002184694167226553 
vn -0.999997615814209 -2.0682260971124217e-13 0.002184694167226553 
vn -0.999997615814209 -2.0682260971124217e-13 0.002184694167226553 
vn 3.097898456858039e-13 -0.999997615814209 0.002184694167226553 
vn 3.097898456858039e-13 -0.999997615814209 0.002184694167226553 
vn 3.097898456858039e-13 -0.999997615814209 0.002184694167226553 
vn 3.097898456858039e-13 -0.999997615814209 0.002184694167226553 
vt 0.9737399816513062 -0.8730239868164062 
vt 1.0000004768371582 -0.8730239868164062 
vt 0.9737399816513062 -0.8071582317352295 
vt 1.0000004768371582 -0.8071582317352295 
vt 0 0.0000014500000133921276 
vt 0 -1 
vt 1.0000014305114746 0.0000014500000133921276 
vt 1.0000014305114746 -1 
vt 1.0000014305114746 0.0000014500000133921276 
vt 1.0000014305114746 -1 
vt 0.8610579967498779 0.0000014500000133921276 
vt 0.8610579967498779 -1 
vt 0.8610579967498779 0.0000014500000133921276 
vt 0.8610579967498779 -1 
vt 0.13894344866275787 0.0000014500000133921276 
vt 0.13894344866275787 -1 
vt 0.13894344866275787 0.0000014500000133921276 
vt 0.13894344866275787 -1 
vt 0 0.0000014500000133921276 
vt 0 -1 
s on 
f 1/1/1 2/2/2 3/3/3 
f 2/2/2 4/4/4 3/3/3 
f 3/3/3 4/4/4 4/4/4 
f 4/4/4 5/5/5 4/4/4 
f 4/4/4 5/5/5 5/5/5 
f 5/5/5 6/6/6 5/5/5 
f 5/5/5 6/6/6 7/7/7 
f 6/6/6 8/8/8 7/7/7 
f 7/7/7 8/8/8 8/8/8 
f 8/8/8 9/9/9 8/8/8 
f 8/8/8 9/9/9 9/9/9 
f 9/9/9 10/10/10 9/9/9 
f 9/9/9 10/10/10 11/11/11 
f 10/10/10 12/12/12 11/11/11 
f 11/11/11 12/12/12 12/12/12 
f 12/12/12 13/13/13 12/12/12 
f 12/12/12 13/13/13 13/13/13 
f 13/13/13 14/14/14 13/13/13 
f 13/13/13 14/14/14 15/15/15 
f 14/14/14 16/16/16 15/15/15 
f 15/15/15 16/16/16 16/16/16 
f 16/16/16 17/17/17 16/16/16 
f 16/16/16 17/17/17 17/17/17 
f 17/17/17 18/18/18 17/17/17 
f 17/17/17 18/18/18 19/19/19 
f 18/18/18 20/20/20 19/19/19 

