mtllib model_8.mtl
o model_8
v -2198.869140625 36953.8984375 -9.99999993922529e-9 
v -2000.028564453125 36953.8984375 -9.99999993922529e-9 
v -2198.869140625 72373.2265625 -9.99999993922529e-9 
v -2000.028564453125 72373.2265625 -9.99999993922529e-9 
v -2350.36669921875 76819.046875 -9.99999993922529e-9 
v -2151.526123046875 76848.484375 -9.99999993922529e-9 
v -2473.45849609375 79704.40625 -9.99999993922529e-9 
v -2274.617919921875 79704.40625 -9.99999993922529e-9 
v -2552.363525390625 81058.765625 -9.99999993922529e-9 
v -2353.52294921875 81088.2109375 -9.99999993922529e-9 
v -2647.049560546875 82265.90625 -9.99999993922529e-9 
v -2445.052734375 82295.3515625 -9.99999993922529e-9 
v -2795.39111328125 84091.34375 -9.99999993922529e-9 
v -2596.55029296875 84091.34375 -9.99999993922529e-9 
v -2956.357177734375 85799.0078125 -9.99999993922529e-9 
v -2757.5166015625 85828.453125 -9.99999993922529e-9 
v -3057.355712890625 86623.3984375 -9.99999993922529e-9 
v -2858.514892578125 86652.84375 -9.99999993922529e-9 
v -3183.603515625 87447.7890625 -9.99999993922529e-9 
v -2987.919189453125 87477.2265625 -9.99999993922529e-9 
v -3341.41357421875 88213.2890625 -9.99999993922529e-9 
v -3148.885498046875 88272.1796875 -9.99999993922529e-9 
v -3540.254150390625 89008.2421875 -9.99999993922529e-9 
v -3347.72607421875 89037.6796875 -9.99999993922529e-9 
v -3754.875732421875 89685.4140625 -9.99999993922529e-9 
v -3565.50390625 89744.3046875 -9.99999993922529e-9 
v -3994.7470703125 90333.15625 -9.99999993922529e-9 
v -3808.53125 90421.4765625 -9.99999993922529e-9 
v -4547.08203125 91628.625 -9.99999993922529e-9 
v -4367.1787109375 91716.953125 -9.99999993922529e-9 
v -5168.853515625 92835.765625 -9.99999993922529e-9 
v -4995.26220703125 92924.09375 -9.99999993922529e-9 
v -5828.4990234375 93954.578125 -9.99999993922529e-9 
v -5661.220703125 94042.90625 -9.99999993922529e-9 
v -6503.92578125 94867.296875 -9.99999993922529e-9 
v -6346.1162109375 94985.0703125 -9.99999993922529e-9 
v -7267.7265625 95780.015625 -9.99999993922529e-9 
v -7119.384765625 95897.78125 -9.99999993922529e-9 
v -8460.76953125 97075.484375 -9.99999993922529e-9 
v -8312.4287109375 97222.6953125 -9.99999993922529e-9 
v -2000.028564453125 36953.8984375 4999.9775390625 
v -2000.028564453125 36953.8984375 -0.02442600019276142 
v -2000.028564453125 72373.2265625 4999.9775390625 
v -2000.028564453125 72373.2265625 -0.02442600019276142 
v -2151.526123046875 76848.484375 4999.9775390625 
v -2151.526123046875 76848.484375 -0.02442600019276142 
v -2274.617919921875 79704.40625 4999.9775390625 
v -2274.617919921875 79704.40625 -0.02442600019276142 
v -2353.52294921875 81088.2109375 4999.9775390625 
v -2353.52294921875 81088.2109375 -0.02442600019276142 
v -2445.052734375 82295.3515625 4999.9775390625 
v -2445.052734375 82295.3515625 -0.02442600019276142 
v -2596.55029296875 84091.34375 4999.9775390625 
v -2596.55029296875 84091.34375 -0.02442600019276142 
v -2757.5166015625 85828.453125 4999.9775390625 
v -2757.5166015625 85828.453125 -0.02442600019276142 
v -2858.514892578125 86652.84375 4999.9775390625 
v -2858.514892578125 86652.84375 -0.02442600019276142 
v -2987.919189453125 87477.2265625 4999.9775390625 
v -2987.919189453125 87477.2265625 -0.02442600019276142 
v -3148.885498046875 88272.1796875 4999.9775390625 
v -3148.885498046875 88272.1796875 -0.02442600019276142 
v -3347.72607421875 89037.6796875 4999.9775390625 
v -3347.72607421875 89037.6796875 -0.02442600019276142 
v -3565.50390625 89744.3046875 4999.9775390625 
v -3565.50390625 89744.3046875 -0.02442600019276142 
v -3808.53125 90421.4765625 4999.9775390625 
v -3808.53125 90421.4765625 -0.02442600019276142 
v -4367.1787109375 91716.953125 4999.9775390625 
v -4367.1787109375 91716.953125 -0.02442600019276142 
v -4995.26220703125 92924.09375 4999.9775390625 
v -4995.26220703125 92924.09375 -0.02442600019276142 
v -5661.220703125 94042.90625 4999.9775390625 
v -5661.220703125 94042.90625 -0.02442600019276142 
v -6346.1162109375 94985.0703125 4999.9775390625 
v -6346.1162109375 94985.0703125 -0.02442600019276142 
v -7119.384765625 95897.78125 4999.9775390625 
v -7119.384765625 95897.78125 -0.02442600019276142 
v -8312.4287109375 97222.6953125 4999.9775390625 
v -8312.4287109375 97222.6953125 -0.02442600019276142 
v -2198.869140625 36953.8984375 4999.9775390625 
v -2198.869140625 36953.8984375 -0.02442600019276142 
v -2198.869140625 72373.2265625 4999.9775390625 
v -2198.869140625 72373.2265625 -0.02442600019276142 
v -2350.36669921875 76819.046875 4999.9775390625 
v -2350.36669921875 76819.046875 -0.02442600019276142 
v -2473.45849609375 79704.40625 4999.9775390625 
v -2473.45849609375 79704.40625 -0.02442600019276142 
v -2552.363525390625 81058.765625 4999.9775390625 
v -2552.363525390625 81058.765625 -0.02442600019276142 
v -2647.049560546875 82265.90625 4999.9775390625 
v -2647.049560546875 82265.90625 -0.02442600019276142 
v -2795.39111328125 84091.34375 4999.9775390625 
v -2795.39111328125 84091.34375 -0.02442600019276142 
v -2956.357177734375 85799.0078125 4999.9775390625 
v -2956.357177734375 85799.0078125 -0.02442600019276142 
v -3057.355712890625 86623.3984375 4999.9775390625 
v -3057.355712890625 86623.3984375 -0.02442600019276142 
v -3183.603515625 87447.7890625 4999.9775390625 
v -3183.603515625 87447.7890625 -0.02442600019276142 
v -3341.41357421875 88213.2890625 4999.9775390625 
v -3341.41357421875 88213.2890625 -0.02442600019276142 
v -3540.254150390625 89008.2421875 4999.9775390625 
v -3540.254150390625 89008.2421875 -0.02442600019276142 
v -3754.875732421875 89685.4140625 4999.9775390625 
v -3754.875732421875 89685.4140625 -0.02442600019276142 
v -3994.7470703125 90333.15625 4999.9775390625 
v -3994.7470703125 90333.15625 -0.02442600019276142 
v -4547.08203125 91628.625 4999.9775390625 
v -4547.08203125 91628.625 -0.02442600019276142 
v -5168.853515625 92835.765625 4999.9775390625 
v -5168.853515625 92835.765625 -0.02442600019276142 
v -5828.4990234375 93954.578125 4999.9775390625 
v -5828.4990234375 93954.578125 -0.02442600019276142 
v -6503.92578125 94867.296875 4999.9775390625 
v -6503.92578125 94867.296875 -0.02442600019276142 
v -7267.7265625 95780.015625 4999.9775390625 
v -7267.7265625 95780.015625 -0.02442600019276142 
v -8460.76953125 97075.484375 4999.9775390625 
v -8460.76953125 97075.484375 -0.02442600019276142 
vn 0 0 1 
vn 0 0 1 
vn 0 0 1 
vn 0 0 1 
vn 0 0 1 
vn 0 0 1 
vn 0 0 1 
vn 0 0 1 
vn 0 0 1 
vn 0 0 1 
vn 0 0 1 
vn 0 0 1 
vn 0 0 1 
vn 0 0 1 
vn 0 0 1 
vn 0 0 1 
vn 0 0 1 
vn 0 0 1 
vn 0 0 1 
vn 0 0 1 
vn 0 0 1 
vn 0 0 1 
vn 0 0 1 
vn 0 0 1 
vn 0 0 1 
vn 0 0 1 
vn 0 0 1 
vn 0 0 1 
vn 0 0 1 
vn 0 0 1 
vn 0 0 1 
vn 0 0 1 
vn 0 0 1 
vn 0 0 1 
vn 0 0 1 
vn 0 0 1 
vn 0 0 1 
vn 0 0 1 
vn 0 0 1 
vn 0 0 1 
vn 0.999997615814209 0 0.002184694167226553 
vn 0.999997615814209 0 0.002184694167226553 
vn 0.9998835325241089 0.015103200450539589 0.002184694167226553 
vn 0.9997409582138062 0.022653724998235703 0.002184694167226553 
vn 0.9992848038673401 0.03775046393275261 0.002184694167226553 
vn 0.9992848038673401 0.03775046393275261 0.002184694167226553 
vn 0.9989712238311768 0.04529581964015961 0.002184694167226553 
vn 0.9986006617546082 0.05283859372138977 0.002184694167226553 
vn 0.998173177242279 0.06037835404276848 0.002184694167226553 
vn 0.9976887702941895 0.06791467219591141 0.002184694167226553 
vn 0.9971474409103394 0.07544711232185364 0.002184694167226553 
vn 0.9965491890907288 0.08297525346279144 0.002184694167226553 
vn 0.9965491890907288 0.08297525346279144 0.002184694167226553 
vn 0.995894193649292 0.0904986634850502 0.002184694167226553 
vn 0.9944137930870056 0.10552956163883209 0.002184694167226553 
vn 0.9935884475708008 0.11303620040416718 0.002184694167226553 
vn 0.9907727837562561 0.1355157196521759 0.002184694167226553 
vn 0.9897211194038391 0.1429940164089203 0.002184694167226553 
vn 0.9849507808685303 0.17282135784626007 0.002184694167226553 
vn 0.9836175441741943 0.18025460839271545 0.002184694167226553 
vn 0.9761117100715637 0.21725822985172272 0.002184694167226553 
vn 0.9727190732955933 0.23197589814662933 0.002184694167226553 
vn 0.963268518447876 0.2685312330722809 0.002184694167226553 
vn 0.9591029286384583 0.283049076795578 0.002184694167226553 
vn 0.9501164555549622 0.3118877410888672 0.002184694167226553 
vn 0.9452975392341614 0.32620200514793396 0.002184694167226553 
vn 0.9323094487190247 0.36165499687194824 0.002184694167226553 
vn 0.9267409443855286 0.3756946325302124 0.002184694167226553 
vn 0.9087722897529602 0.41728663444519043 0.002184694167226553 
vn 0.8990859389305115 0.4377666711807251 0.002184694167226553 
vn 0.878334105014801 0.47804227471351624 0.002184694167226553 
vn 0.8710139393806458 0.49125343561172485 0.002184694167226553 
vn 0.8438400030136108 0.5365904569625854 0.002184694167226553 
vn 0.8272483348846436 0.5618321895599365 0.002184694167226553 
vn 0.7964062690734863 0.604758083820343 0.002184694167226553 
vn 0.777777373790741 0.6285360455513 0.002184694167226553 
vn 0.7534953951835632 0.6574495434761047 0.002184694167226553 
vn 0.7485089898109436 0.6631211042404175 0.002184694167226553 
vn 0.74347984790802 0.6687547564506531 0.002184694167226553 
vn 0.74347984790802 0.6687547564506531 0.002184694167226553 
vn 0.999997615814209 0 0.002184694167226553 
vn 0.999997615814209 0 0.002184694167226553 
vn 0.9998835325241089 0.015103200450539589 0.002184694167226553 
vn 0.9997409582138062 0.022653724998235703 0.002184694167226553 
vn 0.9992848038673401 0.03775046393275261 0.002184694167226553 
vn 0.9992848038673401 0.03775046393275261 0.002184694167226553 
vn 0.9989712238311768 0.04529581964015961 0.002184694167226553 
vn 0.9986006617546082 0.05283859372138977 0.002184694167226553 
vn 0.998173177242279 0.06037835404276848 0.002184694167226553 
vn 0.9976887702941895 0.06791467219591141 0.002184694167226553 
vn 0.9971474409103394 0.07544711232185364 0.002184694167226553 
vn 0.9965491890907288 0.08297525346279144 0.002184694167226553 
vn 0.9965491890907288 0.08297525346279144 0.002184694167226553 
vn 0.995894193649292 0.0904986634850502 0.002184694167226553 
vn 0.9944137930870056 0.10552956163883209 0.002184694167226553 
vn 0.9935884475708008 0.11303620040416718 0.002184694167226553 
vn 0.9907727837562561 0.1355157196521759 0.002184694167226553 
vn 0.9897211194038391 0.1429940164089203 0.002184694167226553 
vn 0.9849507808685303 0.17282135784626007 0.002184694167226553 
vn 0.9836175441741943 0.18025460839271545 0.002184694167226553 
vn 0.9761117100715637 0.21725822985172272 0.002184694167226553 
vn 0.9727190732955933 0.23197589814662933 0.002184694167226553 
vn 0.963268518447876 0.2685312330722809 0.002184694167226553 
vn 0.9591029286384583 0.283049076795578 0.002184694167226553 
vn 0.9501164555549622 0.3118877410888672 0.002184694167226553 
vn 0.9452975392341614 0.32620200514793396 0.002184694167226553 
vn 0.9323094487190247 0.36165499687194824 0.002184694167226553 
vn 0.9267409443855286 0.3756946325302124 0.002184694167226553 
vn 0.9087722897529602 0.41728663444519043 0.002184694167226553 
vn 0.8990859389305115 0.4377666711807251 0.002184694167226553 
vn 0.878334105014801 0.47804227471351624 0.002184694167226553 
vn 0.8710139393806458 0.49125343561172485 0.002184694167226553 
vn 0.8438400030136108 0.5365904569625854 0.002184694167226553 
vn 0.8272483348846436 0.5618321895599365 0.002184694167226553 
vn 0.7964062690734863 0.604758083820343 0.002184694167226553 
vn 0.777777373790741 0.6285360455513 0.002184694167226553 
vn 0.7534953951835632 0.6574495434761047 0.002184694167226553 
vn 0.7485089898109436 0.6631211042404175 0.002184694167226553 
vn 0.74347984790802 0.6687547564506531 0.002184694167226553 
vn 0.74347984790802 0.6687547564506531 0.002184694167226553 
vt 0 -1 
vt 0.9999982118606567 -1 
vt 0 -0.4265667498111725 
vt 0.9999982118606567 -0.4265667498111725 
vt 0 -0.35441452264785767 
vt 0.9999982118606567 -0.35441452264785767 
vt 0 -0.3077780604362488 
vt 0.9999982118606567 -0.3077780604362488 
vt 0 -0.2856806516647339 
vt 0.9999982118606567 -0.2856806516647339 
vt 0 -0.26602497696876526 
vt 0.9999982118606567 -0.26602497696876526 
vt 0 -0.23660250008106232 
vt 0.9999982118606567 -0.23660250008106232 
vt 0 -0.2086450308561325 
vt 0.9999982118606567 -0.2086450308561325 
vt 0 -0.19497151672840118 
vt 0.9999982118606567 -0.19497151672840118 
vt 0 -0.18178632855415344 
vt 0.9999982118606567 -0.18178632855415344 
vt 0 -0.1686011552810669 
vt 0.9999982118606567 -0.1686011552810669 
vt 0 -0.15566013753414154 
vt 0.9999982118606567 -0.15566013753414154 
vt 0 -0.1441841572523117 
vt 0.9999982118606567 -0.1441841572523117 
vt 0 -0.13270816206932068 
vt 0.9999982118606567 -0.13270816206932068 
vt 0 -0.10987826436758041 
vt 0.9999982118606567 -0.10987826436758041 
vt 0 -0.08778087794780731 
vt 0.9999982118606567 -0.08778087794780731 
vt 0 -0.06678225845098495 
vt 0.9999982118606567 -0.06678225845098495 
vt 0 -0.04798116907477379 
vt 0.9999982118606567 -0.04798116907477379 
vt 0 -0.02881382592022419 
vt 0.9999982118606567 -0.02881382592022419 
vt 0 -0.000001764999979059212 
vt 0.9999982118606567 -0.000001764999979059212 
vt 0 -1 
vt 0 -1 
vt 0 -0.4265667498111725 
vt 0 -0.4265667498111725 
vt 0 -0.35441452264785767 
vt 0 -0.35441452264785767 
vt 0 -0.3077780604362488 
vt 0 -0.3077780604362488 
vt 0 -0.2856806516647339 
vt 0 -0.2856806516647339 
vt 0 -0.26602497696876526 
vt 0 -0.26602497696876526 
vt 0 -0.23660250008106232 
vt 0 -0.23660250008106232 
vt 0 -0.2086450308561325 
vt 0 -0.2086450308561325 
vt 0 -0.19497151672840118 
vt 0 -0.19497151672840118 
vt 0 -0.18178632855415344 
vt 0 -0.18178632855415344 
vt 0 -0.1686011552810669 
vt 0 -0.1686011552810669 
vt 0 -0.15566013753414154 
vt 0 -0.15566013753414154 
vt 0 -0.1441841572523117 
vt 0 -0.1441841572523117 
vt 0 -0.13270816206932068 
vt 0 -0.13270816206932068 
vt 0 -0.10987826436758041 
vt 0 -0.10987826436758041 
vt 0 -0.08778087794780731 
vt 0 -0.08778087794780731 
vt 0 -0.06678225845098495 
vt 0 -0.06678225845098495 
vt 0 -0.04798116907477379 
vt 0 -0.04798116907477379 
vt 0 -0.02881382592022419 
vt 0 -0.02881382592022419 
vt 0 -0.000001764999979059212 
vt 0 -0.000001764999979059212 
vt 0 -1 
vt 0 -1 
vt 0 -0.4265667498111725 
vt 0 -0.4265667498111725 
vt 0 -0.35441452264785767 
vt 0 -0.35441452264785767 
vt 0 -0.3077780604362488 
vt 0 -0.3077780604362488 
vt 0 -0.2856806516647339 
vt 0 -0.2856806516647339 
vt 0 -0.26602497696876526 
vt 0 -0.26602497696876526 
vt 0 -0.23660250008106232 
vt 0 -0.23660250008106232 
vt 0 -0.2086450308561325 
vt 0 -0.2086450308561325 
vt 0 -0.19497151672840118 
vt 0 -0.19497151672840118 
vt 0 -0.18178632855415344 
vt 0 -0.18178632855415344 
vt 0 -0.1686011552810669 
vt 0 -0.1686011552810669 
vt 0 -0.15566013753414154 
vt 0 -0.15566013753414154 
vt 0 -0.1441841572523117 
vt 0 -0.1441841572523117 
vt 0 -0.13270816206932068 
vt 0 -0.13270816206932068 
vt 0 -0.10987826436758041 
vt 0 -0.10987826436758041 
vt 0 -0.08778087794780731 
vt 0 -0.08778087794780731 
vt 0 -0.06678225845098495 
vt 0 -0.06678225845098495 
vt 0 -0.04798116907477379 
vt 0 -0.04798116907477379 
vt 0 -0.02881382592022419 
vt 0 -0.02881382592022419 
vt 0 -0.000001764999979059212 
vt 0 -0.000001764999979059212 
s on 
f 1/1/1 2/2/2 3/3/3 
f 2/2/2 4/4/4 3/3/3 
f 3/3/3 4/4/4 5/5/5 
f 4/4/4 6/6/6 5/5/5 
f 5/5/5 6/6/6 7/7/7 
f 6/6/6 8/8/8 7/7/7 
f 7/7/7 8/8/8 9/9/9 
f 8/8/8 10/10/10 9/9/9 
f 9/9/9 10/10/10 11/11/11 
f 10/10/10 12/12/12 11/11/11 
f 11/11/11 12/12/12 13/13/13 
f 12/12/12 14/14/14 13/13/13 
f 13/13/13 14/14/14 15/15/15 
f 14/14/14 16/16/16 15/15/15 
f 15/15/15 16/16/16 17/17/17 
f 16/16/16 18/18/18 17/17/17 
f 17/17/17 18/18/18 19/19/19 
f 18/18/18 20/20/20 19/19/19 
f 19/19/19 20/20/20 21/21/21 
f 20/20/20 22/22/22 21/21/21 
f 21/21/21 22/22/22 23/23/23 
f 22/22/22 24/24/24 23/23/23 
f 23/23/23 24/24/24 25/25/25 
f 24/24/24 26/26/26 25/25/25 
f 25/25/25 26/26/26 27/27/27 
f 26/26/26 28/28/28 27/27/27 
f 27/27/27 28/28/28 29/29/29 
f 28/28/28 30/30/30 29/29/29 
f 29/29/29 30/30/30 31/31/31 
f 30/30/30 32/32/32 31/31/31 
f 31/31/31 32/32/32 33/33/33 
f 32/32/32 34/34/34 33/33/33 
f 33/33/33 34/34/34 35/35/35 
f 34/34/34 36/36/36 35/35/35 
f 35/35/35 36/36/36 37/37/37 
f 36/36/36 38/38/38 37/37/37 
f 37/37/37 38/38/38 39/39/39 
f 38/38/38 40/40/40 39/39/39 
f 39/39/39 40/40/40 40/40/40 
f 40/40/40 41/41/41 40/40/40 
f 40/40/40 41/41/41 41/41/41 
f 41/41/41 42/42/42 41/41/41 
f 41/41/41 42/42/42 43/43/43 
f 42/42/42 44/44/44 43/43/43 
f 43/43/43 44/44/44 45/45/45 
f 44/44/44 46/46/46 45/45/45 
f 45/45/45 46/46/46 47/47/47 
f 46/46/46 48/48/48 47/47/47 
f 47/47/47 48/48/48 49/49/49 
f 48/48/48 50/50/50 49/49/49 
f 49/49/49 50/50/50 51/51/51 
f 50/50/50 52/52/52 51/51/51 
f 51/51/51 52/52/52 53/53/53 
f 52/52/52 54/54/54 53/53/53 
f 53/53/53 54/54/54 55/55/55 
f 54/54/54 56/56/56 55/55/55 
f 55/55/55 56/56/56 57/57/57 
f 56/56/56 58/58/58 57/57/57 
f 57/57/57 58/58/58 59/59/59 
f 58/58/58 60/60/60 59/59/59 
f 59/59/59 60/60/60 61/61/61 
f 60/60/60 62/62/62 61/61/61 
f 61/61/61 62/62/62 63/63/63 
f 62/62/62 64/64/64 63/63/63 
f 63/63/63 64/64/64 65/65/65 
f 64/64/64 66/66/66 65/65/65 
f 65/65/65 66/66/66 67/67/67 
f 66/66/66 68/68/68 67/67/67 
f 67/67/67 68/68/68 69/69/69 
f 68/68/68 70/70/70 69/69/69 
f 69/69/69 70/70/70 71/71/71 
f 70/70/70 72/72/72 71/71/71 
f 71/71/71 72/72/72 73/73/73 
f 72/72/72 74/74/74 73/73/73 
f 73/73/73 74/74/74 75/75/75 
f 74/74/74 76/76/76 75/75/75 
f 75/75/75 76/76/76 77/77/77 
f 76/76/76 78/78/78 77/77/77 
f 77/77/77 78/78/78 79/79/79 
f 78/78/78 80/80/80 79/79/79 
f 79/79/79 80/80/80 80/80/80 
f 80/80/80 81/81/81 80/80/80 
f 80/80/80 81/81/81 81/81/81 
f 81/81/81 82/82/82 81/81/81 
f 81/81/81 82/82/82 83/83/83 
f 82/82/82 84/84/84 83/83/83 
f 83/83/83 84/84/84 85/85/85 
f 84/84/84 86/86/86 85/85/85 
f 85/85/85 86/86/86 87/87/87 
f 86/86/86 88/88/88 87/87/87 
f 87/87/87 88/88/88 89/89/89 
f 88/88/88 90/90/90 89/89/89 
f 89/89/89 90/90/90 91/91/91 
f 90/90/90 92/92/92 91/91/91 
f 91/91/91 92/92/92 93/93/93 
f 92/92/92 94/94/94 93/93/93 
f 93/93/93 94/94/94 95/95/95 
f 94/94/94 96/96/96 95/95/95 
f 95/95/95 96/96/96 97/97/97 
f 96/96/96 98/98/98 97/97/97 
f 97/97/97 98/98/98 99/99/99 
f 98/98/98 100/100/100 99/99/99 
f 99/99/99 100/100/100 101/101/101 
f 100/100/100 102/102/102 101/101/101 
f 101/101/101 102/102/102 103/103/103 
f 102/102/102 104/104/104 103/103/103 
f 103/103/103 104/104/104 105/105/105 
f 104/104/104 106/106/106 105/105/105 
f 105/105/105 106/106/106 107/107/107 
f 106/106/106 108/108/108 107/107/107 
f 107/107/107 108/108/108 109/109/109 
f 108/108/108 110/110/110 109/109/109 
f 109/109/109 110/110/110 111/111/111 
f 110/110/110 112/112/112 111/111/111 
f 111/111/111 112/112/112 113/113/113 
f 112/112/112 114/114/114 113/113/113 
f 113/113/113 114/114/114 115/115/115 
f 114/114/114 116/116/116 115/115/115 
f 115/115/115 116/116/116 117/117/117 
f 116/116/116 118/118/118 117/117/117 
f 117/117/117 118/118/118 119/119/119 
f 118/118/118 120/120/120 119/119/119 

